# xmcd
#
# Track frame offsets:
#	150
#	17958
#	39505
#	57794
#	72717
#	81656
#	98768
#	108739
#	119067
#	135803
#	150228
#	161226
#	176189
#	189614
#	217924
#	234600
#	249012
#	264735
#	277400
#	291311
#	307335
#
# Disc length: 4449 seconds
#
# Revision: 1
# Processed by: cddbd v1.5.2PL0 Copyright (c) Steve Scherf et al.
# Submitted via: audiograbber 1.83.01
#
DISCID=47115f15
DTITLE=Johnny Cash - Heroes and Friends Vol_3
DYEAR=1900
DGENRE=Country
TTITLE0=Man in black (with One Bad Pig)
TTITLE1=Will the circle be unbroken (with Roy Acuff)
TTITLE2=The ballad of Barbara
TTITLE3=Five feet high and rising (with Biff)
TTITLE4=Old chunk of coal
TTITLE5=The ten commandments of love (with David Allan Coe)
TTITLE6=Guess things happen that way (with Tommy Cash)
TTITLE7=I´ll have a new life 
TTITLE8=The three bells
TTITLE9=Go wild (with Carlene Carter)
TTITLE10=Get in line brother (with Marty stuart)
TTITLE11=The world needs a melody (with The Carter Family)
TTITLE12=Hey Porter (with Earl Scruggs)
TTITLE13=The little drummer boy (with Neil Young)
TTITLE14=Get rhythm (with John Stewart)
TTITLE15=No earthly good
TTITLE16=Soldier´s last letter (with Ernest Tubb)
TTITLE17=Two old army pals (with Carl Perkins)
TTITLE18=Mother Maybell (with Marty Stuart)
TTITLE19=Mister Garfield (with Merle Kilgore)
TTITLE20=Man in white
EXTD=
EXTT0=
EXTT1=
EXTT2=
EXTT3=
EXTT4=
EXTT5=
EXTT6=
EXTT7=
EXTT8=
EXTT9=
EXTT10=
EXTT11=
EXTT12=
EXTT13=
EXTT14=
EXTT15=
EXTT16=
EXTT17=
EXTT18=
EXTT19=
EXTT20=
PLAYORDER=
